<?xml version="1.0" encoding="UTF-8"?>
<!DOCTYPE svg PUBLIC "-//W3C//DTD SVG 1.1//EN" "http://www.w3.org/Graphics/SVG/1.1/DTD/svg11.dtd">
<svg version="1.1" xmlns="http://www.w3.org/2000/svg" xmlns:xlink="http://www.w3.org/1999/xlink" x="0" y="0" width="500" height="500" viewBox="0, 0, 500, 500">
  <g id="Layer_1"/>
  <g id="circle">
    <g>
      <path d="M250.5,500.5 C112.429,500.5 0.5,388.571 0.5,250.5 C0.5,112.429 112.429,0.5 250.5,0.5 C388.571,0.5 500.5,112.429 500.5,250.5 C500.5,388.571 388.571,500.5 250.5,500.5 z" fill="#3185C0"/>
      <path d="M250.5,500.5 C112.429,500.5 0.5,388.571 0.5,250.5 C0.5,112.429 112.429,0.5 250.5,0.5 C388.571,0.5 500.5,112.429 500.5,250.5 C500.5,388.571 388.571,500.5 250.5,500.5 z" fill-opacity="0" stroke="#3185C0" stroke-width="1"/>
    </g>
  </g>
  <g id="lines">
    <g>
      <path d="M399.174,195.833 L262.228,252.476" fill="#FFFFFF"/>
      <path d="M399.174,195.833 L262.228,252.476" fill-opacity="0" stroke="#FFFFFF" stroke-width="8"/>
    </g>
    <g>
      <path d="M334.01,372.953 L162.779,365.531" fill="#FFFFFF"/>
      <path d="M334.01,372.953 L162.779,365.531" fill-opacity="0" stroke="#FFFFFF" stroke-width="8"/>
    </g>
    <g>
      <path d="M256.777,252.518 L162.779,365.531" fill="#FFFFFF"/>
      <path d="M256.777,252.518 L162.779,365.531" fill-opacity="0" stroke="#FFFFFF" stroke-width="8"/>
    </g>
    <g>
      <path d="M404.625,195.791 L334.01,372.953" fill="#FFFFFF"/>
      <path d="M404.625,195.791 L334.01,372.953" fill-opacity="0" stroke="#FFFFFF" stroke-width="8"/>
    </g>
    <g>
      <path d="M327.403,364.281 L262.277,259.018" fill="#FFFFFF"/>
      <path d="M327.403,364.281 L262.277,259.018" fill-opacity="0" stroke="#FFFFFF" stroke-width="8"/>
    </g>
    <g>
      <path d="M256.777,252.518 L110.339,207.837" fill="#FFFFFF"/>
      <path d="M256.777,252.518 L110.339,207.837" fill-opacity="0" stroke="#FFFFFF" stroke-width="8"/>
    </g>
    <g>
      <path d="M393.673,189.333 L239.422,120.725" fill="#FFFFFF"/>
      <path d="M393.673,189.333 L239.422,120.725" fill-opacity="0" stroke="#FFFFFF" stroke-width="8"/>
    </g>
    <g>
      <path d="M235.061,120.758 L111.975,207.825" fill="#FFFFFF"/>
      <path d="M235.061,120.758 L111.975,207.825" fill-opacity="0" stroke="#FFFFFF" stroke-width="8"/>
    </g>
    <g>
      <path d="M239.422,120.725 L256.777,252.518" fill="#FFFFFF"/>
      <path d="M239.422,120.725 L256.777,252.518" fill-opacity="0" stroke="#FFFFFF" stroke-width="8"/>
    </g>
    <g>
      <path d="M162.779,365.531 L110.339,207.837" fill="#FFFFFF"/>
      <path d="M162.779,365.531 L110.339,207.837" fill-opacity="0" stroke="#FFFFFF" stroke-width="8"/>
    </g>
  </g>
  <g id="nodes">
    <g>
      <path d="M334.382,350.055 C347.327,349.956 357.901,360.371 358,373.316 C358.098,386.262 347.683,396.836 334.738,396.934 C321.792,397.032 311.218,386.618 311.12,373.672 C311.022,360.727 321.436,350.153 334.382,350.055 z" fill="#FFFFFF"/>
      <path d="M334.382,350.055 C347.327,349.956 357.901,360.371 358,373.316 C358.098,386.262 347.683,396.836 334.738,396.934 C321.792,397.032 311.218,386.618 311.12,373.672 C311.022,360.727 321.436,350.153 334.382,350.055 z" fill-opacity="0" stroke="#3185C0" stroke-width="8"/>
    </g>
    <g>
      <path d="M259.328,229.602 C272.274,229.504 282.848,239.919 282.946,252.864 C283.044,265.81 272.63,276.384 259.684,276.482 C246.739,276.58 236.165,266.166 236.066,253.22 C235.968,240.275 246.383,229.701 259.328,229.602 z" fill="#FFFFFF"/>
      <path d="M259.328,229.602 C272.274,229.504 282.848,239.919 282.946,252.864 C283.044,265.81 272.63,276.384 259.684,276.482 C246.739,276.58 236.165,266.166 236.066,253.22 C235.968,240.275 246.383,229.701 259.328,229.602 z" fill-opacity="0" stroke="#3185C0" stroke-width="8"/>
    </g>
    <g>
      <path d="M163.142,341.542 C176.088,341.443 186.662,351.858 186.76,364.803 C186.858,377.749 176.444,388.323 163.498,388.421 C150.553,388.519 139.979,378.105 139.88,365.159 C139.782,352.214 150.197,341.64 163.142,341.542 z" fill="#FFFFFF"/>
      <path d="M163.142,341.542 C176.088,341.443 186.662,351.858 186.76,364.803 C186.858,377.749 176.444,388.323 163.498,388.421 C150.553,388.519 139.979,378.105 139.88,365.159 C139.782,352.214 150.197,341.64 163.142,341.542 z" fill-opacity="0" stroke="#3185C0" stroke-width="8"/>
    </g>
    <g>
      <path d="M108.522,183.865 C121.467,183.766 132.041,194.181 132.14,207.127 C132.238,220.072 121.823,230.646 108.878,230.744 C95.932,230.842 85.358,220.428 85.26,207.482 C85.162,194.537 95.576,183.963 108.522,183.865 z" fill="#FFFFFF"/>
      <path d="M108.522,183.865 C121.467,183.766 132.041,194.181 132.14,207.127 C132.238,220.072 121.823,230.646 108.878,230.744 C95.932,230.842 85.358,220.428 85.26,207.482 C85.162,194.537 95.576,183.963 108.522,183.865 z" fill-opacity="0" stroke="#3185C0" stroke-width="8"/>
    </g>
    <g>
      <path d="M237.588,94.572 C250.534,94.474 261.108,104.889 261.206,117.834 C261.304,130.779 250.889,141.353 237.944,141.452 C224.999,141.55 214.425,131.135 214.326,118.19 C214.228,105.244 224.643,94.67 237.588,94.572 z" fill="#FFFFFF"/>
      <path d="M237.588,94.572 C250.534,94.474 261.108,104.889 261.206,117.834 C261.304,130.779 250.889,141.353 237.944,141.452 C224.999,141.55 214.425,131.135 214.326,118.19 C214.228,105.244 224.643,94.67 237.588,94.572 z" fill-opacity="0" stroke="#3185C0" stroke-width="8"/>
    </g>
    <g>
      <path d="M402.783,168.548 C415.728,168.45 426.302,178.865 426.4,191.81 C426.499,204.756 416.084,215.329 403.138,215.428 C390.193,215.526 379.619,205.111 379.521,192.166 C379.423,179.22 389.837,168.646 402.783,168.548 z" fill="#FFFFFF"/>
      <path d="M402.783,168.548 C415.728,168.45 426.302,178.865 426.4,191.81 C426.499,204.756 416.084,215.329 403.138,215.428 C390.193,215.526 379.619,205.111 379.521,192.166 C379.423,179.22 389.837,168.646 402.783,168.548 z" fill-opacity="0" stroke="#3185C0" stroke-width="8"/>
    </g>
  </g>
</svg>
